M48
INCH
T01C0.0300
T02C0.0400
T03C0.0600
T04C0.0250
T05C0.0450
%
T01
X+016729Y-005262
X+014500Y-015500
X+011910Y-017000
X+015250Y-006250
X+011307Y-008339
X+014250Y-009050
X+015600Y-009050
X+014266Y-010566
X+013481Y-017277
X+012728Y-016412
X+016250Y-012562
X+006550Y-011300
X+013550Y-009050
X+013543Y-010529
X+014522Y-013579
X+007550Y-013100
X+007981Y-013672
X+015000Y-015000
X+004000Y-017698
X+002692Y-018020
X+002500Y-011500
X+000500Y-010750
X+000150Y-020650
X+020994Y-006113
X+024400Y-016500
X+021250Y-014750
X+020656Y-010969
X+016750Y-013000
X+016331Y-011318
X+016114Y-011939
X+020635Y-013327
X+016500Y-008050
X+014915Y-009043
X+015078Y-010566
X+015830Y-013066
X+011502Y-011730
X+012700Y-011800
X+004767Y-010409
X+002177Y-015151
X+005615Y-015727
X+005922Y-014264
X+017700Y-011550
X+019250Y-010868
X+005874Y-015053
X+006600Y-007622
X+006525Y-002625
X+012685Y-012859
X+011350Y-012350
X+014768Y-005350
X+014437Y-012874
X+006000Y-004500
X+009000Y-004500
X+006000Y-005500
X+009000Y-005500
X+009000Y-009500
X+006000Y-009500
X+001000Y-004500
X+004000Y-004500
X+001000Y-005500
X+004000Y-005500
X+004000Y-009500
X+001000Y-009500
X+010750Y-007000
X+011750Y-007000
X+012750Y-007000
X+013750Y-007000
X+014750Y-007000
X+015750Y-007000
X+016750Y-007000
X+017750Y-007000
X+017750Y-004000
X+016750Y-004000
X+015750Y-004000
X+014750Y-004000
X+013750Y-004000
X+012750Y-004000
X+011750Y-004000
X+010750Y-004000
X+023750Y-011250
X+022750Y-012250
X+023750Y-012250
X+022750Y-013250
X+023750Y-013250
X+021000Y-005000
X+019000Y-005000
X+022250Y-005000
X+024250Y-005000
T02
X+001500Y-019500
X+001500Y-018500
X+001500Y-017500
X+001500Y-013750
X+001500Y-012750
X+001500Y-011750
X+020500Y-016500
X+019500Y-016500
X+018500Y-016500
X+017500Y-016500
X+016500Y-016500
X+015500Y-016500
X+014500Y-016500
X+013500Y-016500
X+020500Y-008000
X+019500Y-008000
X+018500Y-008000
X+017500Y-008000
X+016500Y-008000
X+015500Y-008000
X+014500Y-008000
X+013500Y-008000
X+003500Y-011500
X+003500Y-012500
X+003500Y-013500
X+003500Y-014500
X+007720Y-018897
X+006720Y-018897
X+011220Y-018897
X+010220Y-018897
X+014220Y-018897
X+013220Y-018897
X+004720Y-018897
X+003720Y-018897
T03
X+004700Y-001750
X+002730Y-001750
X+000760Y-001750
X+011190Y-001750
X+009220Y-001750
X+007250Y-001750
X+013500Y-001750
X+015470Y-001750
X+017440Y-001750
X+019410Y-001750
X+021370Y-001750
X+023340Y-001750
X+016530Y-019000
X+018500Y-019000
X+020470Y-019000
T04
X+022750Y-011250
X+024000Y-007750
X+023500Y-007750
X+023000Y-007750
X+022500Y-007750
T05
X+006450Y-012550
X+009450Y-012550
M30
